# xmcd
#
# Track frame offsets:
#	150
#	17504
#	32709
#	45220
#	56028
#	70247
#	85647
#	97175
#	112422
#	129167
#	142681
#
# Disc length: 2126 seconds
# Revision: 0
# Processed by: cddbd v1.5.2PL0 Copyright (c) Steve Scherf et al.
# Submitted via: dBpowerAMP V12.0
#
DISCID=89084c0b
DTITLE=Bianca De Leon - Dangerous Endeavor
DYEAR=2018
DGENRE=Country
TTITLE0=Thorn of a Different Rose
TTITLE1=Has it Really Come to This
TTITLE2=If You Just Had a Mirror
TTITLE3=Hollow Victory
TTITLE4=That Vintage '67 Cadillac
TTITLE5=Put the Dirty Back in Dancin'
TTITLE6=(I Heard That) Lonesome Whistle
TTITLE7=Sad Corners of Her Eyes
TTITLE8=I'm Waitin' for a Miracle
TTITLE9=White Freightliner
TTITLE10=Dangerous Endeavor
EXTD=
EXTT0=
EXTT1=
EXTT2=
EXTT3=
EXTT4=
EXTT5=
EXTT6=
EXTT7=
EXTT8=
EXTT9=
EXTT10=
PLAYORDER=
